<?xml version="1.0" encoding="UTF-8"?>
<svg width="234px" height="52px" viewBox="0 0 234 52" version="1.1" xmlns="http://www.w3.org/2000/svg" xmlns:xlink="http://www.w3.org/1999/xlink">
    <!-- Generator: sketchtool 52.4 (67378) - http://www.bohemiancoding.com/sketch -->
    <title>29EABAD6-FE43-47C3-845B-B0DDA32842A2</title>
    <desc>Created with sketchtool.</desc>
    <g id="Page-1" stroke="none" stroke-width="1" fill="none" fill-rule="evenodd">
        <g id="Home---mrkup" transform="translate(-231.000000, -58.000000)">
            <g id="Header" transform="translate(231.000000, 28.000000)">
                <g id="logo-savvy" transform="translate(0.000000, 30.000000)">
                    <path d="M44.2704268,18.1965493 C44.2171318,23.3418543 48.6569793,27.9701043 53.6325818,28.0809018 C60.0074118,28.2216193 64.3037368,23.2025393 64.3341243,18.0478843 C64.3654468,12.7609268 59.6955893,8.06582425 54.2968993,8.02655425 C48.7065343,7.98588175 44.3302668,12.4247943 44.2704268,18.1965493 Z M71.9066893,18.2989318 C71.9066893,22.6915618 71.9165068,27.0846593 71.9020143,31.4768218 C71.8954693,33.5258743 70.7454193,35.0307568 68.9170268,35.4136393 C67.7263043,35.6632843 66.6519893,35.3402418 65.7165218,34.5959818 C65.2504243,34.2257218 64.8175193,33.8040368 64.4210793,33.3599118 C64.1260868,33.0293893 63.8811168,32.9765618 63.4650418,33.1556143 C60.9512943,34.2383443 58.3501243,35.0129918 55.6143143,35.2897518 C49.3900193,35.9199418 44.3143718,33.8311518 40.4864818,28.8546143 C37.8310818,25.4021268 36.5024468,21.5041118 36.6927193,17.1208318 C36.9891143,10.2752293 42.2349318,2.23469675 50.7513793,0.83593675 C54.7068968,0.18657925 58.4768168,0.93224175 62.1378093,2.42309925 C62.4832918,2.56334925 62.8343843,2.69705425 63.1602318,2.87563925 C63.7137518,3.17951425 64.1532018,3.01962925 64.5571218,2.60495675 C64.9086818,2.24404675 65.2560343,1.87752675 65.6197493,1.52830425 C67.9782868,-0.73907075 71.2208668,1.04911675 71.6921068,3.46048175 C71.8234743,4.13414925 71.9113643,4.82791925 71.9146368,5.51327425 C71.9347393,9.77500425 71.9244543,14.0372018 71.9244543,18.2989318 L71.9066893,18.2989318 Z" id="Fill-1" fill="#595857"></path>
                    <path d="M17.3581347,0.475354 C19.5642673,0.475354 21.7703997,0.4795615 23.9765322,0.473484 C24.9138697,0.470679 25.7918347,0.668899 26.5875197,1.178474 C27.9694497,2.062984 28.6216122,3.5575815 28.2672472,5.017584 C27.8862347,6.5879165 26.5491847,7.7837815 24.8502897,7.862789 C22.4809997,7.973119 20.1065672,7.9661065 17.7340048,8.0025715 C15.4540073,8.0371665 13.1740097,8.052594 10.8944798,8.098409 C10.0880423,8.114304 9.36107975,8.411634 8.72714975,8.908119 C6.96841475,10.285374 7.28724975,12.9786415 9.36855975,13.7892865 C10.1988398,14.112329 11.1487998,14.231074 12.0492048,14.2530465 C15.7676997,14.343274 19.4880647,14.3465465 23.2074947,14.411529 C24.9068573,14.441449 26.6141672,14.500354 28.2354572,15.0992215 C32.1147723,16.5325765 34.2030947,19.410039 35.0249598,23.385659 C36.1689322,28.919924 31.5855623,35.3962015 24.8764697,35.5486065 C20.3178772,35.652859 15.7546097,35.579929 11.1941473,35.559359 C10.6625998,35.556554 10.1142223,35.436874 9.60371225,35.2765215 C7.90014225,34.743104 6.93568975,33.410729 7.01750225,31.782894 C7.10492475,30.050339 8.26666225,28.6314765 9.98612725,28.3210565 C10.9356198,28.1490165 11.9178373,28.109279 12.8864973,28.1003965 C16.1575948,28.0704765 19.4296272,28.087774 22.7011922,28.0714115 C23.4847223,28.0676715 24.2710572,28.028869 25.0513147,27.9564065 C26.3317972,27.8376615 27.2078922,27.0644165 27.4350972,25.8040365 C27.5295322,25.279969 27.5360772,24.715229 27.4533297,24.1892915 C27.2929772,23.1766865 26.6777472,22.4427115 25.6674797,22.2622565 C24.1841022,21.997184 22.6796872,21.755954 21.1776097,21.7059315 C18.4511497,21.6152365 15.7195472,21.6947115 12.9907498,21.660584 C11.0875573,21.637209 9.16613225,21.665259 7.34054475,20.9990715 C3.34248475,19.540004 0.73944475,16.838789 0.10177475,12.5335815 C-0.66586025,7.349474 2.99887225,2.0372715 8.13763225,0.8311215 C9.07450225,0.610929 10.0567198,0.516494 11.0207048,0.494054 C13.1319348,0.4449665 15.2455023,0.4786265 17.3581347,0.4786265 L17.3581347,0.475354 Z" id="Fill-3" fill="#585857"></path>
                    <path d="M168.62884,25.420406 C171.99671,18.710846 175.365047,12.0017535 178.732917,5.2921935 C179.160212,4.440876 179.570677,3.580676 180.01527,2.738241 C180.812357,1.228216 182.516395,0.4993835 184.149372,0.9481835 C185.740742,1.385296 186.89126,2.8948535 186.788877,4.5451285 C186.75288,5.123426 186.572425,5.730241 186.312027,6.251036 C179.068115,20.753821 171.806437,35.247256 164.543357,49.7402235 C163.857067,51.1090635 162.45597,51.8776335 160.95623,51.744396 C159.497162,51.6148985 158.217615,50.550401 157.837537,49.074971 C157.591632,48.122206 157.735622,47.1988935 158.185357,46.306436 C160.226462,42.2527435 162.25214,38.1911035 164.27548,34.1285285 C164.388147,33.902726 164.43069,33.6413935 164.505957,33.396891 C164.59525,33.3150785 164.718202,33.251031 164.768692,33.1505185 C166.059927,30.575996 167.343682,27.998201 168.62884,25.420406" id="Fill-6" fill="#E78F9E"></path>
                    <path d="M130.170794,24.4995713 C130.292344,24.3163113 130.434464,24.1433363 130.532639,23.9479213 C134.061329,16.9419663 137.586279,9.93414125 141.108891,2.92491375 C141.698876,1.75148875 142.584789,1.00395625 143.912021,0.75898625 C145.728726,0.42332125 147.710459,1.81553625 148.001711,3.65187625 C148.138689,4.51768625 147.998439,5.30729375 147.609011,6.08147375 C142.934946,15.3753738 138.262284,24.6702088 133.599906,33.9706538 C132.912681,35.3408963 131.833224,36.1613588 130.318056,36.2300813 C128.941736,36.2922588 127.278371,35.4727313 126.782353,33.7640188 C126.745421,33.6999713 126.708956,33.6354563 126.672024,33.5709413 L126.679503,33.5816938 C126.443883,32.2376313 126.901098,31.0693488 127.525211,29.9080788 C128.379801,28.3176438 129.158188,26.6856013 129.963223,25.0685188 C130.052984,24.8889988 130.102539,24.6898438 130.170794,24.4995713" id="Fill-9" fill="#E6ACB9"></path>
                    <path d="M91.793812,24.4899875 C91.917232,24.3085975 92.0635595,24.138895 92.1607995,23.944415 C93.8391245,20.60553 95.505762,17.2615025 97.185022,13.923085 C99.040062,10.2349775 100.902115,6.55061 102.766037,2.86671 C103.925437,0.575025 106.634132,0.0388025 108.550415,1.7152575 C109.68083,2.70402 109.979095,4.5857075 109.217537,6.1032125 C106.82908,10.8614275 104.427065,15.61263 102.03627,20.36991 C100.039577,24.3431925 98.0531695,28.32115 96.0588145,32.295835 C95.7156695,32.9797875 95.359902,33.6576625 95.000862,34.334135 C94.334207,35.5893725 93.2276345,36.2214325 91.863002,36.2406 C90.445542,36.2607025 89.327282,35.58423 88.619487,34.3177725 C88.495132,34.0952425 88.412852,33.84887 88.310937,33.6127825 C88.0280995,32.3486625 88.448382,31.2453625 89.029952,30.147205 C89.918202,28.469815 90.7452095,26.7592325 91.591852,25.05987 C91.6811445,24.8808175 91.727427,24.68026 91.793812,24.4899875" id="Fill-11" fill="#E4C0C8"></path>
                    <path d="M168.62884,25.420406 C167.343682,27.998201 166.059927,30.575996 164.768692,33.1505185 C164.718202,33.251031 164.59525,33.3150785 164.505957,33.396891 C162.305902,29.014546 160.10725,24.6317335 157.905792,20.2503235 C155.52014,15.5023935 153.121397,10.761476 150.749302,6.0065335 C149.621692,3.746171 150.824102,1.2557985 153.24996,0.7480935 C154.817955,0.419441 156.41213,1.221671 157.19005,2.7592785 C158.806197,5.953706 160.409722,9.154211 162.01839,12.3523785 C164.154397,16.5991485 166.28947,20.8468535 168.426412,25.093156 C168.483915,25.207226 168.561052,25.3114785 168.62884,25.420406" id="Fill-13" fill="#595857"></path>
                    <path d="M130.170793,24.4995713 C130.102538,24.6898438 130.052983,24.8889988 129.963223,25.0685188 C129.158188,26.6856013 128.379801,28.3176438 127.525211,29.9080788 C126.901098,31.0693488 126.443883,32.2376313 126.679503,33.5816938 C125.431746,31.1212413 124.178378,28.6635938 122.937633,26.2003363 C119.564621,19.5038663 116.194881,12.8055263 112.827478,6.10671875 C111.658261,3.78043875 112.813453,1.26715875 115.282321,0.74823375 C116.847978,0.41911375 118.444491,1.22461625 119.222878,2.76222375 C120.595926,5.47512625 121.954481,8.19457375 123.321918,10.9102813 C125.603318,15.4403563 127.887523,19.9699638 130.170793,24.4995713" id="Fill-15" fill="#595858"></path>
                    <path d="M91.793812,24.4899875 C91.727427,24.68026 91.6811445,24.8808175 91.591852,25.05987 C90.7452095,26.7592325 89.918202,28.469815 89.029952,30.147205 C88.448382,31.2453625 88.0280995,32.3486625 88.310937,33.6127825 C86.7639795,30.55206 85.2128145,27.4932075 83.670532,24.4301475 C80.6013945,18.336285 77.542542,12.2377475 74.466392,6.1480925 C73.9507395,5.126605 73.7815045,4.092495 74.2069295,3.0186475 C74.749697,1.648405 75.7786645,0.8382275 77.245212,0.7138725 C78.830972,0.5792325 80.057692,1.251965 80.7902645,2.6698925 C82.082902,5.17055 83.3306595,7.6945825 84.596182,10.2087975 C86.942097,14.871175 89.287077,19.5335525 91.6334595,24.19593 C91.683482,24.2955075 91.7400495,24.3918125 91.793812,24.4899875" id="Fill-17" fill="#595858"></path>
                    <path d="M201.696,10.8 L201.696,15 L199.554,15 L199.554,2.568 C200.352,2.442 201.591,2.316 202.62,2.316 C205.896,2.316 207.702,3.828 207.702,6.558 C207.702,9.498 205.539,10.842 202.641,10.842 C202.347,10.842 201.969,10.821 201.696,10.8 Z M201.696,4.269 L201.696,8.973 C201.885,8.994 202.221,9.015 202.494,9.015 C204.489,9.015 205.539,8.238 205.539,6.558 C205.539,5.088 204.552,4.206 202.599,4.206 C202.347,4.206 201.969,4.227 201.696,4.269 Z M213.939,13.11 L219.567,13.11 L219.567,15 L211.818,15 L211.818,2.526 L219.441,2.526 L219.441,4.416 L213.939,4.416 L213.939,7.776 L219.042,7.776 L219.042,9.624 L213.939,9.624 L213.939,13.11 Z M229.164,4.416 L229.164,15 L227.022,15 L227.022,4.416 L223.074,4.416 L223.074,2.526 L233.091,2.526 L233.091,4.416 L229.164,4.416 Z M198.84,32.286 L198.84,30.102 C199.806,30.837 200.814,31.383 202.137,31.383 C203.376,31.383 204.447,30.9 204.447,29.64 C204.447,28.485 203.544,28.044 202.158,27.624 C199.764,26.868 198.672,25.923 198.672,23.823 C198.672,21.555 200.499,20.316 202.641,20.316 C203.985,20.316 204.993,20.694 205.833,21.261 L205.833,23.403 C204.846,22.605 203.901,22.143 202.704,22.143 C201.507,22.143 200.772,22.794 200.772,23.76 C200.772,24.768 201.486,25.188 203.061,25.692 C205.497,26.427 206.547,27.456 206.547,29.577 C206.547,32.076 204.573,33.21 202.158,33.21 C200.793,33.21 199.638,32.832 198.84,32.286 Z M213.078,28.8 L213.078,33 L210.936,33 L210.936,20.568 C211.734,20.442 212.973,20.316 214.002,20.316 C217.278,20.316 219.084,21.828 219.084,24.558 C219.084,27.498 216.921,28.842 214.023,28.842 C213.729,28.842 213.351,28.821 213.078,28.8 Z M213.078,22.269 L213.078,26.973 C213.267,26.994 213.603,27.015 213.876,27.015 C215.871,27.015 216.921,26.238 216.921,24.558 C216.921,23.088 215.934,22.206 213.981,22.206 C213.729,22.206 213.351,22.227 213.078,22.269 Z M230.067,30.06 L224.502,30.06 L223.41,33 L221.142,33 L225.993,20.526 L228.618,20.526 L233.49,33 L231.159,33 L230.067,30.06 Z M229.416,28.296 L227.295,22.542 L225.153,28.296 L229.416,28.296 Z" id="PET-SPA" fill="#4A4A4A"></path>
                </g>
            </g>
        </g>
    </g>
</svg>