<svg id="Layer_1" data-name="Layer 1" xmlns="http://www.w3.org/2000/svg" viewBox="0 0 659.8 147.5"><defs><style>.cls-1{fill:#af0;}.cls-2{fill:#fff;}</style></defs><title>StackAI white</title><polygon class="cls-1" points="634.2 0 633.7 147.5 659.7 147.5 659.8 0 634.2 0"/><polygon class="cls-1" points="614.3 0 579 0 487.4 137.8 517.2 146.4 517.7 146.4 588.7 38.9 588.5 75 569.2 75 569.2 98.6 588.5 98.6 588.3 147.5 614.3 147.5 614.3 0 614.3 0 614.3 0"/><path class="cls-2" d="M684,476.1a4.7,4.7,0,0,0-4.5,2.1c-2.7,3.5-5.7,6.9-8.6,10.5l-2.8-2.4-2.7-2.3c-12.6-9.8-26.5-14.2-42.4-10.8-23.1,4.8-38.8,22.9-41.9,46.4a63.8,63.8,0,0,0,1.6,24.6c4.3,16,13.8,27.8,29.2,34.3a52.7,52.7,0,0,0,28.5,3.9c9.3-1.4,17.5-5.6,25-11.4l5.5-4.4c3,5.1,6,10,9,14.9.4.5.9,1.2,1.4,1.3,2.1.1,4.2,0,6.3,0V476.2A21,21,0,0,1,684,476.1Zm-42.7,78.8A25.4,25.4,0,0,1,608.7,536c-.5-2.8-.8-5.6-1.1-8.4.3-8.4,2.4-16,8.7-21.8,9.5-8.8,27.3-10.2,38.2,3.9C668.4,527.8,657.2,549.8,641.3,554.9Z" transform="translate(-390.1 -436.3)"/><path class="cls-2" d="M452.7,518.5c-9.5-.2-18.9-.1-28.4-.1-4.5,0-7.4-2.7-7.5-6.7s2.9-6.8,7.4-6.8h53.2V478.3H423.1a38.3,38.3,0,0,0-8.9,1.3,33.1,33.1,0,0,0-23,40.3c3.4,14,16.1,24.7,30.2,25.1,9.6.3,19.3,0,28.9.1a20,20,0,0,1,4.9.7,3.1,3.1,0,0,1,2.5,3.2c.2,4.4-2.5,7.2-7.1,7.2-19.3.1-38.6,0-57.9,0h-2.4v26.7h2.6c19.3,0,38.6.1,57.9,0a37.2,37.2,0,0,0,8.1-.9c17.6-3.7,29.3-23,24.5-40.4C479.3,526.6,465.9,518.7,452.7,518.5Z" transform="translate(-390.1 -436.3)"/><path class="cls-2" d="M530.8,436.4H504.2v41.8H491.4V505h12.9v31.2a44.7,44.7,0,0,0,6.1,23c7.6,12.9,18.8,21,33.5,23,8.9,1.2,18,.4,26.9.6.1,0,.2-.2.3-.3V556.1c-6.6,0-13,.1-19.5,0a21.7,21.7,0,0,1-5.7-.6,20.1,20.1,0,0,1-15.1-19.7V504.9h40.4V478.1H530.8Z" transform="translate(-390.1 -436.3)"/><path class="cls-2" d="M779.7,541l-1,1.7c-5.5,9.1-13.6,13.7-24.2,13.3s-17.7-5.5-22.4-14.6c-2.8-5.5-3.3-11.2-2.4-17.2,1.3-8.3,4.7-15.4,11.6-20.4a25,25,0,0,1,35.8,7.2c1.1,1.7,2,3.6,2.9,5.2,6-5.9,12-11.9,18.1-17.7,1.1-1.1,1.3-1.9.4-3.3-8.6-12.7-20.6-20.4-35.6-22.6s-30.4,2.4-42.1,13.6c-13.8,12.9-19.7,29.1-18.3,47.9a49.2,49.2,0,0,0,13.6,31.3c15.1,15.8,33.5,20.9,54.6,15.3,11.9-3.2,21.3-10.3,28.9-20.7l-19.7-19.2C779.8,540.9,779.7,540.9,779.7,541Z" transform="translate(-390.1 -436.3)"/><path class="cls-2" d="M866,511.3a2.6,2.6,0,0,1,0-3.2c4-5.9,7.9-11.8,11.8-17.8l11.8-18.2H861.9l-20.1,30.6-1.2,1.6-.4-.2V436.3H815.5c-1.8-.1-2.3.5-2.3,2.3q.1,71.1.1,142v2.1h27.4V546.6a4.3,4.3,0,0,1,.5-2.3l8.9-12.4,1.3,2.1,27.7,47.3a2.6,2.6,0,0,0,2.6,1.6h25.6l-1.3-2.3C892.7,557.3,879.3,534.3,866,511.3Z" transform="translate(-390.1 -436.3)"/></svg>